# xmcd CD database file
#
# Track frame offsets:
#	150
#	14131
#	29674
#	45235
#	60762
#	77851
#	94593
#	109331
#	125260
#	138345
#	153843
#	170203
#	188663
#	209027
#	225760
#	247484
#
# Disc length: 3510 seconds
#
# Revision: 6
# Processed by: cddbd v1.5.1PL2 Copyright (c) Steve Scherf et al.
# Submitted via: CDex 1.51
#
DISCID=d70db410
DTITLE=Matti Esko - Viisi pitkää yötä
DYEAR=2003
DGENRE=Iskelmä
TTITLE0=Viisi pitkää yötä
TTITLE1=Tuhansien tähtien hotelli
TTITLE2=Villin pohjolan maa
TTITLE3=Pirjo
TTITLE4=Takametsien mies
TTITLE5=Olet ainut rakkautein
TTITLE6=Taksin taustapeili
TTITLE7=Toiveistani laulun sulle tein
TTITLE8=Pyörät pyörimään
TTITLE9=Täyttä asiaa
TTITLE10=Tämä maa on meitä varten
TTITLE11=Rekkamies
TTITLE12=Huomenta suomi
TTITLE13=Reissumies
TTITLE14=Kotiin ette voi viedä
TTITLE15=Ei itkut enää auta
EXTD=YEAR: 2003
EXTT0=
EXTT1=
EXTT2=
EXTT3=
EXTT4=
EXTT5=
EXTT6=
EXTT7=
EXTT8=
EXTT9=
EXTT10=
EXTT11=
EXTT12=
EXTT13=
EXTT14=
EXTT15=
PLAYORDER=
